<?xml version="1.0" encoding="UTF-8" ?>
<!DOCTYPE svg PUBLIC "-//W3C//DTD SVG 1.1//EN" "http://www.w3.org/Graphics/SVG/1.1/DTD/svg11.dtd">
<svg width="64pt" height="64pt" viewBox="0 0 64 64" version="1.1" xmlns="http://www.w3.org/2000/svg">
<g id="#000000ff">
<path fill="#000000" opacity="1.00" d=" M 0.30 21.03 C 0.01 11.38 7.49 2.30 17.00 0.70 C 25.83 -1.13 35.41 3.74 39.22 11.89 C 42.12 17.58 41.69 24.38 39.20 30.13 C 47.52 38.17 55.25 46.86 64.00 54.42 L 64.00 55.68 C 60.51 57.55 58.04 60.79 55.85 64.00 L 54.42 64.00 C 46.86 55.26 38.18 47.52 30.14 39.22 C 25.99 40.88 21.44 41.91 16.99 40.96 C 7.63 39.36 0.22 30.54 0.30 21.03 M 16.39 7.60 C 10.10 9.59 5.86 16.45 7.02 22.98 C 7.97 30.03 14.98 35.53 22.07 34.69 C 30.03 34.19 36.24 25.88 34.45 18.09 C 33.08 10.14 24.00 4.80 16.39 7.60 Z" />
</g>
</svg>
