<?xml version="1.0" encoding="UTF-8" ?>
<!DOCTYPE svg PUBLIC "-//W3C//DTD SVG 1.1//EN" "http://www.w3.org/Graphics/SVG/1.1/DTD/svg11.dtd">
<svg width="64pt" height="64pt" viewBox="0 0 64 64" version="1.1" xmlns="http://www.w3.org/2000/svg">
<g id="#000000ff">
<path fill="#000000" opacity="1.00" d=" M 6.71 0.96 C 17.09 0.96 27.48 0.91 37.86 0.97 C 44.32 7.53 50.91 13.96 57.34 20.54 C 57.26 34.71 57.33 48.87 57.30 63.04 C 40.43 63.06 23.57 63.06 6.71 63.04 C 6.70 42.35 6.70 21.65 6.71 0.96 M 12.34 57.42 C 25.45 57.41 38.55 57.41 51.66 57.42 C 51.68 46.95 51.66 36.49 51.67 26.03 C 45.15 26.01 38.63 26.03 32.12 26.02 C 32.11 19.54 32.12 13.06 32.11 6.59 C 25.52 6.58 18.93 6.59 12.34 6.58 C 12.33 23.53 12.33 40.47 12.34 57.42 M 37.75 8.88 C 37.74 12.71 37.75 16.55 37.75 20.38 C 41.58 20.38 45.42 20.39 49.25 20.38 C 45.43 16.54 41.59 12.71 37.75 8.88 Z" />
</g>
<g id="#ffffffff">
<path fill="#ffffff" opacity="1.00" d=" M 12.34 57.42 C 12.33 40.47 12.33 23.53 12.34 6.58 C 18.93 6.59 25.52 6.58 32.11 6.59 C 32.12 13.06 32.11 19.54 32.12 26.02 C 38.63 26.03 45.15 26.01 51.67 26.03 C 51.66 36.49 51.68 46.95 51.66 57.42 C 38.55 57.41 25.45 57.41 12.34 57.42 Z" />
<path fill="#ffffff" opacity="1.00" d=" M 37.75 8.88 C 41.59 12.71 45.43 16.54 49.25 20.38 C 45.42 20.39 41.58 20.38 37.75 20.38 C 37.75 16.55 37.74 12.71 37.75 8.88 Z" />
</g>
</svg>
