<?xml version="1.0" encoding="UTF-8" ?>
<!DOCTYPE svg PUBLIC "-//W3C//DTD SVG 1.1//EN" "http://www.w3.org/Graphics/SVG/1.1/DTD/svg11.dtd">
<svg width="64pt" height="64pt" viewBox="0 0 64 64" version="1.1" xmlns="http://www.w3.org/2000/svg">
<g id="#000000ff">
<path fill="#000000" opacity="1.00" d=" M 7.16 0.00 L 7.64 0.00 C 15.20 8.82 23.94 16.55 32.01 24.91 C 37.34 19.59 42.67 14.27 47.98 8.93 C 50.85 6.03 53.99 3.38 56.31 0.00 L 56.87 0.00 C 59.00 2.61 61.40 4.98 64.00 7.14 L 64.00 7.65 C 55.17 15.19 47.46 23.95 39.09 32.00 C 44.39 37.33 49.71 42.64 55.04 47.95 C 57.95 50.82 60.59 53.99 64.00 56.29 L 64.00 56.81 C 61.40 59.00 59.03 61.44 56.80 64.00 L 56.34 64.00 C 48.81 55.16 40.04 47.46 32.00 39.09 C 23.99 47.46 15.17 55.09 7.76 64.00 L 7.22 64.00 C 4.99 61.42 2.56 59.03 0.00 56.79 L 0.00 56.32 C 1.55 55.12 3.09 53.90 4.49 52.52 C 11.22 45.60 18.12 38.86 24.91 32.00 C 16.56 23.97 8.88 15.20 0.00 7.73 L 0.00 7.19 C 2.59 5.00 4.97 2.58 7.16 0.00 Z" />
</g>
</svg>
