<?xml version="1.0" encoding="UTF-8" ?>
<!DOCTYPE svg PUBLIC "-//W3C//DTD SVG 1.1//EN" "http://www.w3.org/Graphics/SVG/1.1/DTD/svg11.dtd">
<svg width="64pt" height="64pt" viewBox="0 0 64 64" version="1.1" xmlns="http://www.w3.org/2000/svg">
<g id="#000000ff">
<path fill="#000000" opacity="1.00" d=" M 28.02 0.99 C 30.34 0.99 32.66 0.98 34.98 0.98 C 34.99 1.60 35.01 2.84 35.02 3.46 C 38.63 4.15 42.47 5.12 45.06 7.93 C 47.99 10.85 48.85 15.15 48.51 19.15 C 46.19 19.16 43.86 19.09 41.54 19.01 C 41.84 14.90 39.33 11.02 35.03 10.62 C 34.97 15.97 35.01 21.32 35.00 26.66 C 41.34 27.55 47.71 31.11 49.64 37.58 C 53.80 35.14 57.95 32.65 62.34 30.62 L 61.87 32.67 C 58.12 35.71 53.98 38.20 50.10 41.05 C 49.84 44.76 49.20 48.68 46.70 51.60 C 43.92 55.24 39.34 56.67 35.00 57.35 C 35.00 59.24 35.00 61.13 35.00 63.02 C 32.66 63.02 30.33 63.01 28.00 63.00 C 27.99 60.93 28.00 58.86 28.01 56.80 C 25.44 58.05 22.34 59.50 20.12 56.86 C 20.15 56.20 20.20 54.88 20.22 54.22 C 15.81 50.63 13.69 44.78 14.64 39.18 C 15.50 39.16 17.21 39.12 18.07 39.10 C 18.79 40.20 18.84 41.84 19.79 42.69 C 20.64 41.26 20.92 39.60 21.44 38.04 C 21.87 38.43 22.75 39.21 23.19 39.60 C 24.28 43.20 24.74 46.97 25.35 50.68 C 26.29 50.24 27.19 49.73 28.11 49.26 C 27.89 43.62 28.05 37.98 28.00 32.34 C 25.13 31.30 22.14 30.22 19.92 28.04 C 14.29 22.84 13.89 12.79 19.54 7.46 C 21.81 5.22 24.96 4.34 27.97 3.58 C 27.98 2.93 28.01 1.64 28.02 0.99 M 22.89 16.91 C 22.20 20.56 24.94 23.40 27.94 24.91 C 28.03 20.16 28.04 15.42 27.93 10.68 C 25.38 11.83 22.80 13.80 22.89 16.91 M 35.05 33.86 C 34.98 37.86 34.99 41.87 35.01 45.87 C 37.70 44.34 40.38 42.80 43.06 41.26 C 42.56 37.01 38.75 34.90 35.05 33.86 M 24.76 52.72 C 23.57 48.25 24.23 42.97 21.56 39.09 C 21.12 45.03 21.17 50.99 21.01 56.94 C 24.17 58.82 26.97 56.00 29.44 54.34 C 39.58 47.01 50.31 40.47 60.10 32.68 C 48.19 39.12 36.47 45.93 24.76 52.72 Z" />
</g>
<g id="#00cd0aff">
<path fill="#00cd0a" opacity="1.00" d=" M 24.76 52.72 C 36.47 45.93 48.19 39.12 60.10 32.68 C 50.31 40.47 39.58 47.01 29.44 54.34 C 26.97 56.00 24.17 58.82 21.01 56.94 C 21.17 50.99 21.12 45.03 21.56 39.09 C 24.23 42.97 23.57 48.25 24.76 52.72 Z" />
</g>
</svg>
